<svg width="82" height="481" viewBox="0 0 82 481" fill="none" xmlns="http://www.w3.org/2000/svg">
<g id="Decoration / Noodle">
<g id="Shape=4, Tone=Brand">
<g id="Capa_1-2">
<path id="noodle" d="M42.5934 5.31992C39.3178 13.8133 35.6479 22.2093 30.1332 29.7633C28.0306 32.6448 24.7306 36.2222 21.9952 39.3762C18.9726 42.8611 15.8381 46.4824 13.5456 50.5027C8.73674 58.928 7.01373 69.6798 10.3673 78.9519C13.2487 86.905 19.2452 93.4856 28.0111 94.3812C32.1288 94.7997 36.2076 93.2811 39.4687 90.8524C44.1558 87.3626 48.6142 81.9209 49.2811 75.9731C49.7191 72.0501 45.5819 68.6674 41.9802 68.6723C37.6629 68.682 35.3023 72.0112 33.6815 75.5156C32.2164 78.6842 30.9704 81.9696 30.0018 85.3232C28.1961 91.5922 27.2762 98.2652 27.2177 104.787C27.1253 115.768 29.9045 126.364 32.377 136.97C32.9222 139.316 33.4381 141.671 33.8616 144.042C33.9589 144.582 34.397 147.537 34.1974 145.989C34.3678 147.298 34.4943 148.612 34.5771 149.926C34.7377 152.399 34.7328 154.886 34.5381 157.359C34.4846 158.05 34.4456 158.765 34.3288 159.447C34.5673 158.026 34.0076 160.63 34.0124 160.61C33.8859 161.131 33.7399 161.647 33.5841 162.158C33.4284 162.659 33.2629 163.156 33.0779 163.652C33.331 163.102 33.2726 163.219 32.9027 164.003C32.562 164.645 32.2164 165.268 31.8222 165.876C31.9877 165.618 32.6886 165.02 31.72 166.003L31.2673 166.465C30.6248 167.049 30.62 167.079 31.2527 166.548L30.7319 166.85C31.5983 166.524 31.647 166.48 30.8779 166.718L31.7346 166.606C31.0483 166.582 31.0093 166.602 31.6178 166.665L32.0461 166.723C31.277 166.485 31.3306 166.538 32.2067 166.874L31.6956 166.587C32.343 167.152 32.3478 167.152 31.7102 166.582C31.1651 165.969 31.1067 165.945 31.5301 166.499C31.316 166.198 31.1164 165.886 30.9363 165.565C28.7899 161.949 28.5368 155.636 29.2863 151.425C29.7731 148.675 30.4837 145.964 31.4231 143.331C31.6713 142.64 31.9244 141.944 32.2116 141.268C32.085 141.574 31.7102 142.304 32.343 141.014C33.0682 139.535 33.7983 138.07 34.6501 136.658C35.2341 135.69 35.8766 134.765 36.5191 133.83C37.7213 132.083 35.604 134.789 36.9912 133.232C37.3465 132.833 37.6872 132.419 38.0474 132.025C38.8164 131.183 39.6293 130.379 40.4859 129.625C40.6855 129.45 42.2722 128.243 40.8704 129.26C41.3426 128.919 41.8195 128.583 42.3111 128.267C43.2651 127.659 44.258 127.152 45.2802 126.661C43.5961 127.474 46.0687 126.461 46.5943 126.325C47.12 126.189 47.6262 126.106 48.147 126.004C46.3461 126.354 47.5142 126.067 48.0302 126.077C48.4634 126.087 48.9014 126.052 49.3346 126.067C49.685 126.082 50.0306 126.106 50.3811 126.14C49.3151 125.984 49.1886 125.979 50.0063 126.125C50.8824 126.374 51.7536 126.607 52.62 126.89C54.3284 127.449 51.4324 126.101 52.9705 127.075C53.462 127.386 53.9926 127.644 54.489 127.965C54.8249 128.184 55.151 128.413 55.4722 128.647C54.1143 127.639 55.7059 128.91 55.8811 129.075C56.8205 129.946 57.7112 130.9 58.4948 131.917C57.5603 130.706 58.8696 132.536 58.9328 132.633C59.3174 133.217 59.6775 133.816 60.0231 134.424C60.6169 135.471 61.1718 136.551 61.6439 137.661C61.1183 136.425 62.0187 138.741 62.0138 138.717C62.2718 139.447 62.5054 140.187 62.7196 140.932C63.1625 142.475 63.5081 144.037 63.8001 145.614C64.9975 152.039 65.4306 158.683 65.9174 165.511C66.3603 171.741 66.92 177.962 67.0222 184.211C67.0709 187.122 67.032 190.033 66.8714 192.938C66.7983 194.223 66.701 195.503 66.5793 196.784C66.3506 199.091 66.4333 198.536 66.0245 200.794C65.5523 203.398 64.9293 205.978 64.097 208.489C63.951 208.932 63.7952 209.38 63.6346 209.818C63.6006 209.911 62.739 212.033 63.3329 210.66C62.7877 211.921 62.1598 213.152 61.4784 214.35C59.1227 218.482 55.8519 222.03 51.116 224.741C47.1395 227.019 40.9921 228.479 36.9523 228.869C30.9217 229.448 24.7257 229.667 19.0359 231.945C-7.24249 242.453 -4.17125 279.809 15.3124 295.501C24.3412 302.773 38.7434 310.016 48.1373 299.016C56.655 289.047 53.2868 270.416 40.6806 265.543C35.862 263.679 30.0262 264.599 25.7527 267.427C20.2527 271.063 16.8699 276.85 14.5093 282.866C9.52037 295.579 9.81241 309.957 11.8275 323.245C13.6186 335.077 17.4637 346.428 22.073 357.432C24.4823 363.186 27.0425 368.866 29.6027 374.551C30.7514 377.101 31.9001 379.656 33.0195 382.221C33.2239 382.689 33.4284 383.156 33.6279 383.623C33.6036 383.565 34.5868 385.872 34.0903 384.699C34.7377 386.232 35.3655 387.775 35.9788 389.323C38.135 394.774 40.0673 400.318 41.6005 405.979C42.3744 408.841 43.051 411.737 43.6107 414.647C44.2921 418.2 44.5793 420.099 44.8421 423.223C45.0757 426.046 45.1682 428.884 45.1147 431.717C45.0855 433.201 45.0173 434.686 44.9054 436.165C44.847 436.968 44.774 437.772 44.6864 438.575C44.662 438.784 44.37 440.921 44.5403 439.811C44.112 442.649 43.5134 445.462 42.7103 448.217C42.3209 449.55 41.8877 450.865 41.3961 452.164C41.2987 452.422 40.7001 453.882 41.1576 452.821C40.7779 453.707 40.3545 454.583 39.9067 455.435C37.3076 460.424 33.8713 463.802 29.3399 467.613C26.3222 470.153 26.7213 475.318 29.3399 477.936C32.3284 480.925 36.6408 480.482 39.6633 477.936C44.6085 473.775 49.0669 469.161 52.1771 463.432C54.9855 458.263 56.9275 452.573 58.0713 446.81C60.6121 434.014 59.9209 421.067 57.1952 408.359C54.6545 396.502 50.1718 385.225 45.3142 374.147C42.9682 368.788 40.5054 363.478 38.1399 358.129C36.9231 355.374 36.1638 353.626 35.2633 351.421C34.1925 348.798 33.1607 346.155 32.2018 343.493C28.0014 331.84 25.227 320.281 25.0713 308.293C24.9837 301.556 25.4996 296.193 27.4854 289.86C28.3664 287.042 28.9408 285.611 30.654 282.944C30.9169 282.535 31.1943 282.131 31.4766 281.737C30.7173 282.793 31.9098 281.24 31.9828 281.158C32.377 280.72 32.8492 280.354 33.2386 279.926C32.2846 280.977 33.0828 280.043 33.5793 279.746C34.0027 279.493 35.4921 279.011 33.7691 279.547C34.2558 279.396 34.7815 279.284 35.2633 279.113C35.0297 279.196 33.5647 279.152 34.8253 279.177C35.4678 279.191 36.67 279.522 34.874 279.04C35.3558 279.167 35.8425 279.313 36.3195 279.435C34.9664 279.079 35.4678 279.094 35.9642 279.362C37.3611 280.121 35.1368 278.257 36.2027 279.537C36.4802 279.804 36.743 280.087 36.9863 280.389C36.4607 279.712 36.4363 279.727 36.9133 280.432C37.1129 280.831 37.3514 281.211 37.5461 281.615C36.9523 280.374 37.7797 282.399 37.8089 282.496C37.843 282.618 38.281 284.862 38.0815 283.348C38.1594 283.947 38.174 284.555 38.1788 285.158C38.1837 285.762 38.1642 286.366 38.1058 286.964C38.2616 285.46 37.9111 287.66 37.8722 287.806C37.804 288.064 36.9425 289.899 37.6629 288.57C37.4925 288.887 36.4315 290.196 37.3271 289.237L36.8403 289.734C36.193 290.308 36.1735 290.328 36.7771 289.792L36.2417 290.099C37.074 289.792 37.0983 289.768 36.3195 290.031C35.9399 290.06 34.9664 290.133 36.524 290.084C35.9204 290.104 35.3363 290.104 34.7328 290.084C36.4753 290.143 34.6209 290.021 34.2315 289.919C33.8178 289.812 33.4138 289.656 33.0001 289.549C31.0775 289.043 34.1098 290.196 32.2943 289.286C31.4815 288.877 30.6784 288.473 29.8947 288.016C28.9164 287.441 27.9624 286.828 27.0279 286.181C26.4828 285.801 25.9474 285.407 25.412 285.012C26.5217 285.83 25.4071 285.022 25.1394 284.793C24.2439 284.029 23.3677 283.251 22.55 282.404C22.0828 281.922 21.635 281.43 21.1969 280.924C21.0217 280.72 19.839 279.181 20.6226 280.247C19.0505 278.116 17.6536 275.779 16.6217 273.336C17.1279 274.533 16.2226 272.187 16.2372 272.236C16.0668 271.744 15.9062 271.253 15.7553 270.751C15.5266 269.992 15.3222 269.228 15.1469 268.454C15.0252 267.928 14.9182 267.403 14.816 266.877C14.6797 265.972 14.6407 265.806 14.7089 266.385C14.5191 265.032 14.446 263.635 14.4412 262.268C14.4412 261.46 14.4947 260.666 14.5239 259.858C14.6115 257.41 14.373 260.447 14.5921 259.065C14.8111 257.683 15.1469 256.32 15.5704 254.986C15.5752 254.967 16.4027 252.684 15.8673 253.984C16.135 253.331 16.466 252.689 16.8018 252.071C17.1376 251.453 17.5222 250.898 17.8629 250.304C18.8558 248.586 16.9965 251.083 18.3155 249.676C19.0261 248.917 19.7222 248.138 20.5593 247.505C20.8757 247.267 22.3943 246.391 23.2217 245.943C25.1005 244.926 22.3407 246.099 24.3363 245.471C25.3049 245.164 26.2638 244.862 27.2567 244.638C27.7483 244.527 28.2399 244.424 28.7363 244.332C28.7607 244.332 31.204 243.957 29.7779 244.142C31.1505 243.962 32.5377 243.855 33.9151 243.733C37.2054 243.451 40.4859 243.13 43.7421 242.57C56.1293 240.448 67.251 233.147 73.7196 222.307C79.7891 212.135 81.4585 199.869 81.6143 188.217C81.7019 181.856 81.2347 175.523 80.7674 169.186C80.2709 162.464 79.867 155.738 78.986 149.05C77.3311 136.459 73.6125 123.833 62.8267 116.045C54.3674 109.937 42.9974 110.234 34.4456 115.977C24.9739 122.339 18.8168 132.857 16.0182 143.769C14.3049 150.442 13.8425 157.222 15.0593 164.017C16.1642 170.174 19.4691 176.896 25.3487 179.729C32.1045 182.98 39.1085 180.288 43.4549 174.555C47.4802 169.24 48.8917 162.528 49.2227 155.986C49.7483 145.556 46.9496 135.364 44.5841 125.308C44.0098 122.869 43.4647 120.426 43.0072 117.963C42.793 116.819 42.6129 115.666 42.4231 114.517C42.0483 112.234 42.5448 115.963 42.3063 113.641C42.2333 112.925 42.1505 112.205 42.0824 111.49C41.839 108.749 41.7514 105.999 41.839 103.249C41.951 99.7059 42.1992 97.652 42.7881 94.6002C43.3479 91.7188 44.0926 88.886 45.0465 86.1117C45.2218 85.6055 45.397 85.1041 45.5868 84.6077C45.5771 84.632 46.5359 82.2714 45.9859 83.5417C46.2585 82.9187 46.5457 82.3006 46.8572 81.6971C47.0178 81.3856 48.0886 79.94 46.9983 81.1471L41.8341 83.2838H41.9656C39.5319 80.8501 37.0983 78.4165 34.6647 75.9829L34.8496 74.9851C35.1611 73.8802 35.1514 73.6758 34.8204 74.3621C34.4554 74.6882 34.2412 75.3404 33.9735 75.7687C33.8032 76.0413 33.6133 76.3041 33.4284 76.567C33.516 76.4404 34.0417 75.8223 33.4916 76.4891C32.9417 77.1559 32.3186 77.7692 31.7248 78.4117C31.7346 78.4019 30.8293 79.2342 31.3403 78.8108C31.7589 78.4603 30.5275 79.3559 30.4593 79.3997C29.6757 79.8718 29.2328 79.828 30.3474 79.5749C29.9045 79.6771 28.3713 79.8232 29.4178 79.9059C30.5762 79.9984 29.0235 79.7745 28.712 79.8572C27.9138 80.0763 29.9726 80.3245 29.2279 79.9351C28.9846 79.8086 28.5611 79.7599 28.2885 79.6917C26.7943 79.3072 28.8824 80.1979 27.977 79.536C27.3735 79.0931 26.8284 78.7232 27.7288 79.5019C27.2372 79.0785 26.7846 78.6453 26.3222 78.1878C26.1177 77.9882 25.9523 77.7546 25.7527 77.5501C26.1908 78.0077 26.2346 78.29 25.8354 77.6134C25.4655 76.9904 25.0859 76.3869 24.7403 75.7444C24.5894 75.4621 24.4483 75.17 24.3217 74.878C24.4629 75.1944 24.716 76.0948 24.3217 74.7661C24.1222 74.0944 23.8983 73.4373 23.7328 72.7559C23.6403 72.3811 23.2753 70.1908 23.3531 70.9209C22.6084 64.0094 25.3098 58.2514 29.408 53.17C34.397 46.9886 40.0576 41.3718 44.4284 34.7036C49.6266 26.7797 53.2625 18.0284 56.6598 9.2186C58.0373 5.64603 55.1413 1.05133 51.5589 0.238496C47.3828 -0.715488 44.0536 1.51372 42.5788 5.33939L42.5934 5.31992Z" fill="currentColor"/>
</g>
</g>
</g>
</svg>
